<svg version="1.2" xmlns="http://www.w3.org/2000/svg" viewBox="0 0 3087 512" width="3087" height="512">
	<title>svgviewer-output-svg</title>
	<style>
		.s0 { fill: #7b1b24 } 
	</style>
	<path id="Layer" fill-rule="evenodd" class="s0" d="m3001 305v-4h37v4h-17v43h-4v-43zm79-4h7v47h-5v-40l-16 40h-4l-16-40v40h-4v-47h6l16 41zm-2706 2v-119l107 64v68l-89-51v23l86 49q-6 12-19 12-8 0-13-4zm-119-50l102-59v267l-60 35v-239l-20 12v235q-9 0-15.5-6.5-6.5-6.5-6.5-15.5zm-252-112v-1q7-10 19-10 7 0 13 4l200 115v116l-234-134-1-70 210 120v-23zm231-35l-104 60 2-124 59-34v102l20-12v-98h1q9 0 15.5 6.5 6.5 6.5 6.5 15.5zm224-17q3 5 3 11 0 14-12 20l-202 115-101-60 234-133 61 34-209 120 20 11zm-399 276l73-41 103 59-109 61-59-34 88-51-20-12-86 50q-4-6-4-12 0-15 14-20zm1067-257v1q24 12 37 35 15 24 15 52v2q0 29-15 53-14 22-37 35-25 14-54 14-29 0-53-14-24-13-37-35-14-24-14-52v-3q0-28 14-52 13-22 37-35 25-14 53-14l1-1q29 0 53 14zm1 123q8-15 8-32v-4q0-17-8-31-7-15-22-23-15-9-32-9h-1q-18 0-32 9-14 9-22 23-8 15-8 32v4q0 17 8 31 7 15 22 23 14 9 31 9h2q17 0 32-9 14-9 22-23zm264 4l42 63h-48l-33-52q-5 1-11 1h-16v50h-41v-200h56q43 0 66 20 24 20 25 56v3q0 19-11 36-11 16-29 23zm-15-32q11-9 11-30v-4q0-16-12-26-15-10-32-10h-18v79h18q18 0 33-9zm-555-1v-105h42v253h-2l-130-121q-7-6-13-14-2-3-6-8-4-5-6-7l-14-17 3 22q1 5 2 18 1 14 1 20v104h-42v-252l130 120q8 8 13 15 3 3 7 7.5 4 4.5 6 6.5l13 18-2-22q-1-12-1.5-19-0.5-7-0.5-19zm1326-25h1q23 9 40 25 15 15 15 36v6q0 16-9 29-9 13-24 19-15 8-33 8h-7q-24 0-44-12-18-11-28-30l34-19q6 11 16 18 11 7 24 7h3q11 0 19-6 7-5 8-14 0-10-8-16-10-7-23-12l-11-4q-20-8-35-23-14-16-14-38v-3q0-22 17-37 17-16 41-16h6q17 0 32 8 15 9 24 25l-33 20q-4-8-11-14-6-4-14-4h-2q-8 0-14 5-5 5-5 12v2q0 8 6 13 8 7 19 11zm458-81h4l92 201h-44l-9-22h-83l-10 22h-39zm14 109v1q-5-13-6-16-1-2-3-7-2-5-2-8l-2-6-2 6q-3 12-4 15-4 11-6 15l-14 35h53zm301 48l-4 1 62 93h-53l-51-81q-5 1-11 1h-22v81h-45v-250h68q49 0 75 23 22 22 23 64v4q0 21-11 38-11 17-31 26zm-15-31q14-13 14-32v-9q0-20-15-34-18-11-40-11h-23v96h19q30 1 45-10zm-1224-125v36h-58v164h-42v-164h-57v-36zm608 36v-36h158v36h-58v164h-42v-164zm-378 164v-61h-86v61h-42v-200h42v103h86v-103h42v200zm-819 184q6-4 9-11l22 14q-9 13-21 21-12 6-26 6h-3q-11 0-21-5-10-3-17.5-10.5-7.5-7.5-11.5-17.5-5-10-5-21l0.5-0.5q0 0 0.5-1.5 0-11 4-21 4-10 11.5-17 7.5-7 17.5-11 10-5 21-5h1q8 0 15 2 7 2 13 5 5 3 10 7 4 4 8 9l-22 14q-1-1-2-2.5-1-1.5-2-2.5l-4-4q-3-2-7-3-4-1-9-1h-1q-5 0-10 3-4 2-7 5-4 5-5 10-2 6-2 12 0 6 2 12 2 5 5 10 4 4 8.5 6.5 4.5 2.5 10.5 2.5h2q8 0 15-5zm322-77v82h45v24h-74v-106zm711 62q-5 9-14 14l19 30h-31l-15-25h-11v25h-29v-106h41q10 0 20 3 7 3 13 9 6 6 9 13 3 8 3 17 0 11-5 20zm-27-8q4-5 4-12 0-4-1-8-1-3-3-5-2-3-6-4-4-1-8-1h-11v36h11v-1h1q7 0 13-5zm194-1v-53h27v107q0 1-0.5 1-0.5 0-2.5-1l-66-54v53h-28v-107q0-1 1-1h2zm153 53h-28v-106h28zm143-109q1 0 1 1l52 108h-29l-5-9h-40l-4 9h-28l52-108q0-1 1-1zm-13 79h22l-11-25zm-640-63h1q17 16 17 39 0 12-5 23-4 9-12 17-8 7-18 11-10 4-22 4h-2q-11 0-21-4-10-4-18-11-17-16-17-40 0-12 5-22 4-10 12-17 8-7 18-11 11-4 22-5h2q11 0 21 5 10 4 17 11zm-13 51q2-5 2-11v-2q0-6-2-11-2-5-5-9-4-4-9-6-5-3-11-3h-2q-6 0-12 3-5 2-9 6-3 4-5 9-2 6-2 12 0 6 2 12 2 5 5 10 4 4 9 6 6 3 12 3h1q6 0 12-3 5-2 8.5-6 3.5-4 5.5-10zm-668-67l1 1 52 108h-30l-4-9h-41l-4 9h-28l52-108q0-1 2-1zm-13 78h22l-11-24zm340 31h-29v-106h29zm98 0v-106h73v24h-44v25h39v24h-39v33z"/>
</svg>