<svg version="1.2" xmlns="http://www.w3.org/2000/svg" viewBox="0 0 481 504" width="481" height="504">
	<title>svgviewer-output-svg</title>
	<style>
		.s0 { fill: #7b1b24 } 
	</style>
	<path id="Layer" class="s0" d="m374 303v-119l107 64v68l-89-51v23l86 49q-6 12-19 12-8 0-13-4zm-119 177v-227l102-59v267l-60 35v-239l-20 12v235q-9 0-15.5-6.5-6.5-6.5-6.5-15.5zm-252-339v-1q7-10 19-10 7 0 13 4l200 115v116l-234-134-1-70 210 120v-23zm231-117v82l-104 60 2-124 59-34v102l20-12v-98h1q9 0 15.5 6.5 6.5 6.5 6.5 15.5zm224 65q3 5 3 11 0 14-12 20l-202 115-101-60 234-133 61 34-209 120 20 11zm-399 276l73-41 103 59-109 61-59-34 88-51-20-12-86 50q-4-6-4-12 0-15 14-20z"/>
</svg>